<svg xmlns="http://www.w3.org/2000/svg" xmlns:xlink="http://www.w3.org/1999/xlink" width="500" zoomAndPan="magnify" viewBox="0 0 375 374.999991" height="500" preserveAspectRatio="xMidYMid meet" version="1.0"><defs><g/><clipPath id="98b7ea393d"><path d="M 186 100.359375 L 285.890625 100.359375 L 285.890625 213.609375 L 186 213.609375 Z M 186 100.359375 " clip-rule="nonzero"/></clipPath><clipPath id="0e9b8c9dd6"><path d="M 89.390625 111 L 270 111 L 270 203 L 89.390625 203 Z M 89.390625 111 " clip-rule="nonzero"/></clipPath></defs><g clip-path="url(#98b7ea393d)"><path fill="#80cc28" d="M 229.3125 100.390625 C 211.964844 100.390625 196.445312 108.195312 186.066406 120.484375 C 195.613281 110.609375 208.996094 104.464844 223.820312 104.464844 C 252.816406 104.464844 276.328125 127.980469 276.328125 156.984375 C 276.328125 185.992188 252.816406 209.503906 223.820312 209.503906 C 208.996094 209.503906 195.613281 203.363281 186.066406 193.484375 C 196.445312 205.773438 211.964844 213.578125 229.3125 213.578125 C 260.558594 213.578125 285.890625 188.242188 285.890625 156.984375 C 285.890625 125.730469 260.558594 100.390625 229.3125 100.390625 " fill-opacity="1" fill-rule="nonzero"/></g><g clip-path="url(#0e9b8c9dd6)"><path fill="#f68712" d="M 175.503906 169.925781 C 177.941406 169.925781 179.914062 167.949219 179.914062 165.515625 C 179.914062 163.074219 177.941406 161.101562 175.503906 161.101562 L 148.394531 161.101562 C 145.957031 161.101562 143.980469 163.074219 143.980469 165.515625 C 143.980469 167.949219 145.957031 169.925781 148.394531 169.925781 Z M 131.769531 161.101562 L 116.742188 161.101562 C 113.96875 161.101562 111.902344 163.65625 112.46875 166.375 C 112.476562 166.402344 112.480469 166.433594 112.488281 166.460938 C 112.910156 168.484375 114.699219 169.925781 116.761719 169.925781 L 131.769531 169.925781 C 134.203125 169.925781 136.179688 167.949219 136.179688 165.515625 C 136.179688 163.074219 134.203125 161.101562 131.769531 161.101562 Z M 251.363281 144.84375 C 248.183594 149.398438 244.554688 155.898438 238.425781 155.859375 C 235.71875 155.839844 233.121094 156.867188 231.722656 159.1875 L 230.175781 161.75 L 228.457031 159.441406 L 229.761719 157.816406 C 231.453125 155.703125 231.523438 152.910156 230.574219 150.375 C 228.425781 144.632812 233.273438 138.984375 236.449219 134.429688 C 238.574219 131.390625 242.960938 126.449219 244.742188 126.132812 L 232.886719 143.121094 C 232.585938 143.550781 232.691406 144.144531 233.121094 144.441406 C 233.550781 144.742188 234.140625 144.636719 234.441406 144.207031 L 246.527344 126.890625 C 246.8125 126.488281 247.332031 126.324219 247.792969 126.5 L 247.8125 126.507812 C 248.460938 126.761719 248.707031 127.554688 248.308594 128.125 L 236.21875 145.449219 C 235.917969 145.878906 236.023438 146.46875 236.453125 146.769531 C 236.882812 147.066406 237.472656 146.960938 237.773438 146.53125 L 250.050781 128.945312 C 250.386719 128.457031 251.054688 128.339844 251.542969 128.675781 L 251.550781 128.683594 L 251.5625 128.691406 C 252.046875 129.03125 252.164062 129.699219 251.828125 130.183594 L 239.550781 147.773438 C 239.25 148.203125 239.355469 148.796875 239.785156 149.09375 C 240.214844 149.394531 240.804688 149.289062 241.105469 148.859375 L 253.195312 131.539062 C 253.59375 130.964844 254.421875 130.921875 254.882812 131.445312 L 254.898438 131.464844 C 255.222656 131.832031 255.25 132.378906 254.96875 132.78125 L 242.882812 150.101562 C 242.582031 150.53125 242.6875 151.121094 243.117188 151.421875 C 243.546875 151.71875 244.136719 151.617188 244.4375 151.1875 L 256.292969 134.199219 C 256.609375 135.984375 253.488281 141.800781 251.363281 144.84375 Z M 245.855469 191.425781 C 244.082031 192.570312 241.710938 191.976562 240.6875 190.132812 L 227.457031 166.261719 L 212.851562 190.484375 C 211.761719 192.292969 209.375 192.800781 207.644531 191.59375 C 205.914062 190.382812 205.566406 187.964844 206.886719 186.320312 L 225.628906 162.964844 L 222.96875 158.167969 C 221.65625 155.800781 219.09375 154.453125 216.394531 154.597656 C 213.417969 154.753906 210.300781 153.097656 207.289062 148.433594 C 202.660156 141.257812 200.039062 129.6875 204.261719 126.964844 C 208.480469 124.242188 217.941406 131.394531 222.570312 138.570312 C 225.578125 143.234375 225.804688 146.757812 224.433594 149.402344 C 223.191406 151.808594 223.363281 154.699219 224.980469 156.871094 L 246.800781 186.1875 C 248.058594 187.878906 247.625 190.285156 245.855469 191.425781 Z M 224.066406 111.066406 C 214.597656 111.066406 205.796875 113.9375 198.488281 118.851562 L 200.4375 118.851562 C 202.667969 118.851562 204.554688 120.601562 204.617188 122.832031 C 204.679688 125.152344 202.820312 127.046875 200.519531 127.046875 L 188.230469 127.046875 C 185.792969 127.046875 183.816406 129.023438 183.816406 131.460938 C 183.816406 133.898438 185.792969 135.875 188.230469 135.875 L 193.660156 135.875 C 195.890625 135.875 197.777344 137.625 197.839844 139.859375 C 197.902344 142.175781 196.046875 144.074219 193.742188 144.074219 L 169.03125 144.074219 C 166.59375 144.074219 164.617188 146.050781 164.617188 148.488281 C 164.617188 150.925781 166.59375 152.902344 169.03125 152.902344 L 204.375 152.902344 C 206.609375 152.902344 208.496094 154.652344 208.558594 156.886719 C 208.621094 159.203125 206.761719 161.101562 204.460938 161.101562 L 192.128906 161.101562 C 189.691406 161.101562 187.714844 163.074219 187.714844 165.515625 C 187.714844 167.949219 189.691406 169.925781 192.128906 169.925781 L 205.558594 169.925781 C 207.789062 169.925781 209.679688 171.679688 209.738281 173.910156 C 209.800781 176.226562 207.945312 178.125 205.644531 178.125 L 172.929688 178.125 C 170.492188 178.125 168.519531 180.101562 168.519531 182.539062 C 168.519531 184.976562 170.492188 186.953125 172.929688 186.953125 L 199.921875 186.953125 C 202.15625 186.953125 204.042969 188.703125 204.105469 190.9375 C 204.167969 193.253906 202.308594 195.152344 200.007812 195.152344 L 198.539062 195.152344 C 205.835938 200.046875 214.617188 202.902344 224.066406 202.902344 C 249.421875 202.902344 269.972656 182.34375 269.972656 156.984375 C 269.972656 131.625 249.421875 111.066406 224.066406 111.066406 Z M 156.304688 178.125 L 152 178.125 C 148.363281 178.125 146.3125 182.3125 148.546875 185.183594 C 148.570312 185.210938 148.589844 185.238281 148.613281 185.265625 C 149.445312 186.328125 150.714844 186.953125 152.066406 186.953125 L 156.304688 186.953125 C 158.742188 186.953125 160.714844 184.976562 160.714844 182.539062 C 160.714844 180.101562 158.742188 178.125 156.304688 178.125 Z M 154.1875 135.875 L 171.601562 135.875 C 174.039062 135.875 176.015625 133.898438 176.015625 131.460938 C 176.015625 129.023438 174.039062 127.046875 171.601562 127.046875 L 154.1875 127.046875 C 151.75 127.046875 149.773438 129.023438 149.773438 131.460938 C 149.773438 133.898438 151.75 135.875 154.1875 135.875 Z M 107.890625 144.074219 L 94.242188 144.074219 C 92.175781 144.074219 90.390625 145.519531 89.96875 147.542969 C 89.960938 147.570312 89.953125 147.601562 89.949219 147.632812 C 89.386719 150.347656 91.449219 152.902344 94.226562 152.902344 L 107.890625 152.902344 C 110.328125 152.902344 112.304688 150.925781 112.304688 148.488281 C 112.304688 146.050781 110.328125 144.074219 107.890625 144.074219 Z M 124.519531 152.902344 L 152.402344 152.902344 C 154.839844 152.902344 156.816406 150.925781 156.816406 148.488281 C 156.816406 146.050781 154.839844 144.074219 152.402344 144.074219 L 124.519531 144.074219 C 122.082031 144.074219 120.105469 146.050781 120.105469 148.488281 C 120.105469 150.925781 122.082031 152.902344 124.519531 152.902344 Z M 134.09375 135.875 L 137.558594 135.875 C 139.996094 135.875 141.972656 133.898438 141.972656 131.460938 C 141.972656 129.023438 139.996094 127.046875 137.558594 127.046875 L 134.160156 127.046875 C 132.8125 127.046875 131.539062 127.667969 130.710938 128.730469 L 130.648438 128.8125 C 128.40625 131.683594 130.453125 135.875 134.09375 135.875 " fill-opacity="1" fill-rule="nonzero"/></g><g fill="#80cc28" fill-opacity="0.4"><g transform="translate(200.813634, 253.395643)"><g><path d="M 15.859375 -25.890625 C 14.859375 -25.890625 14.078125 -25.617188 13.515625 -25.078125 C 12.953125 -24.535156 12.5625 -23.691406 12.34375 -22.546875 L 12.171875 -21.71875 L 17.828125 -21.71875 L 16.84375 -16.765625 L 11.359375 -16.765625 L 8.015625 0 L 1.5625 0 L 4.90625 -16.765625 L 1.4375 -16.765625 L 2.4375 -21.71875 L 5.90625 -21.71875 L 6.15625 -23 C 6.675781 -25.46875 7.753906 -27.410156 9.390625 -28.828125 C 11.023438 -30.242188 13.164062 -30.953125 15.8125 -30.953125 C 16.800781 -30.953125 17.742188 -30.84375 18.640625 -30.625 C 19.535156 -30.40625 20.296875 -30.101562 20.921875 -29.71875 L 18.40625 -25.09375 C 17.71875 -25.625 16.867188 -25.890625 15.859375 -25.890625 Z M 15.859375 -25.890625 "/></g></g></g><g fill="#80cc28" fill-opacity="0.4"><g transform="translate(212.905708, 253.395643)"><g><path d="M 12.390625 0.328125 C 10.160156 0.328125 8.195312 -0.0820312 6.5 -0.90625 C 4.8125 -1.726562 3.503906 -2.890625 2.578125 -4.390625 C 1.660156 -5.890625 1.203125 -7.632812 1.203125 -9.625 C 1.203125 -12.070312 1.78125 -14.269531 2.9375 -16.21875 C 4.09375 -18.175781 5.6875 -19.71875 7.71875 -20.84375 C 9.757812 -21.976562 12.054688 -22.546875 14.609375 -22.546875 C 16.867188 -22.546875 18.835938 -22.128906 20.515625 -21.296875 C 22.191406 -20.472656 23.488281 -19.3125 24.40625 -17.8125 C 25.332031 -16.3125 25.796875 -14.570312 25.796875 -12.59375 C 25.796875 -10.144531 25.222656 -7.941406 24.078125 -5.984375 C 22.941406 -4.035156 21.347656 -2.492188 19.296875 -1.359375 C 17.242188 -0.234375 14.941406 0.328125 12.390625 0.328125 Z M 12.796875 -5 C 14.035156 -5 15.148438 -5.304688 16.140625 -5.921875 C 17.128906 -6.546875 17.898438 -7.40625 18.453125 -8.5 C 19.003906 -9.601562 19.28125 -10.867188 19.28125 -12.296875 C 19.28125 -13.816406 18.835938 -15.015625 17.953125 -15.890625 C 17.078125 -16.773438 15.835938 -17.21875 14.234375 -17.21875 C 12.972656 -17.21875 11.847656 -16.90625 10.859375 -16.28125 C 9.867188 -15.664062 9.097656 -14.804688 8.546875 -13.703125 C 7.992188 -12.597656 7.71875 -11.332031 7.71875 -9.90625 C 7.71875 -8.394531 8.164062 -7.195312 9.0625 -6.3125 C 9.957031 -5.4375 11.203125 -5 12.796875 -5 Z M 12.796875 -5 "/></g></g></g><g fill="#80cc28" fill-opacity="0.4"><g transform="translate(236.01779, 253.395643)"><g><path d="M 12.390625 0.328125 C 10.160156 0.328125 8.195312 -0.0820312 6.5 -0.90625 C 4.8125 -1.726562 3.503906 -2.890625 2.578125 -4.390625 C 1.660156 -5.890625 1.203125 -7.632812 1.203125 -9.625 C 1.203125 -12.070312 1.78125 -14.269531 2.9375 -16.21875 C 4.09375 -18.175781 5.6875 -19.71875 7.71875 -20.84375 C 9.757812 -21.976562 12.054688 -22.546875 14.609375 -22.546875 C 16.867188 -22.546875 18.835938 -22.128906 20.515625 -21.296875 C 22.191406 -20.472656 23.488281 -19.3125 24.40625 -17.8125 C 25.332031 -16.3125 25.796875 -14.570312 25.796875 -12.59375 C 25.796875 -10.144531 25.222656 -7.941406 24.078125 -5.984375 C 22.941406 -4.035156 21.347656 -2.492188 19.296875 -1.359375 C 17.242188 -0.234375 14.941406 0.328125 12.390625 0.328125 Z M 12.796875 -5 C 14.035156 -5 15.148438 -5.304688 16.140625 -5.921875 C 17.128906 -6.546875 17.898438 -7.40625 18.453125 -8.5 C 19.003906 -9.601562 19.28125 -10.867188 19.28125 -12.296875 C 19.28125 -13.816406 18.835938 -15.015625 17.953125 -15.890625 C 17.078125 -16.773438 15.835938 -17.21875 14.234375 -17.21875 C 12.972656 -17.21875 11.847656 -16.90625 10.859375 -16.28125 C 9.867188 -15.664062 9.097656 -14.804688 8.546875 -13.703125 C 7.992188 -12.597656 7.71875 -11.332031 7.71875 -9.90625 C 7.71875 -8.394531 8.164062 -7.195312 9.0625 -6.3125 C 9.957031 -5.4375 11.203125 -5 12.796875 -5 Z M 12.796875 -5 "/></g></g></g><g fill="#80cc28" fill-opacity="0.4"><g transform="translate(259.129873, 253.395643)"><g><path d="M 29.46875 -30.625 L 23.359375 0 L 17.25 0 L 17.703125 -2.234375 C 15.835938 -0.523438 13.566406 0.328125 10.890625 0.328125 C 9.160156 0.328125 7.566406 -0.0664062 6.109375 -0.859375 C 4.648438 -1.660156 3.488281 -2.8125 2.625 -4.3125 C 1.757812 -5.8125 1.328125 -7.582031 1.328125 -9.625 C 1.328125 -12.070312 1.867188 -14.28125 2.953125 -16.25 C 4.035156 -18.21875 5.515625 -19.757812 7.390625 -20.875 C 9.265625 -21.988281 11.328125 -22.546875 13.578125 -22.546875 C 15.203125 -22.546875 16.625 -22.269531 17.84375 -21.71875 C 19.070312 -21.164062 20.046875 -20.351562 20.765625 -19.28125 L 23.03125 -30.625 Z M 12.875 -5 C 14.144531 -5 15.273438 -5.304688 16.265625 -5.921875 C 17.253906 -6.546875 18.023438 -7.40625 18.578125 -8.5 C 19.128906 -9.601562 19.40625 -10.867188 19.40625 -12.296875 C 19.40625 -13.816406 18.957031 -15.015625 18.0625 -15.890625 C 17.164062 -16.773438 15.921875 -17.21875 14.328125 -17.21875 C 13.054688 -17.21875 11.925781 -16.90625 10.9375 -16.28125 C 9.945312 -15.664062 9.175781 -14.804688 8.625 -13.703125 C 8.070312 -12.597656 7.796875 -11.332031 7.796875 -9.90625 C 7.796875 -8.394531 8.242188 -7.195312 9.140625 -6.3125 C 10.035156 -5.4375 11.28125 -5 12.875 -5 Z M 12.875 -5 "/></g></g></g><g fill="#80cc28" fill-opacity="1"><g transform="translate(200.813634, 253.395643)"><g><path d="M 15.859375 -25.890625 C 14.859375 -25.890625 14.078125 -25.617188 13.515625 -25.078125 C 12.953125 -24.535156 12.5625 -23.691406 12.34375 -22.546875 L 12.171875 -21.71875 L 17.828125 -21.71875 L 16.84375 -16.765625 L 11.359375 -16.765625 L 8.015625 0 L 1.5625 0 L 4.90625 -16.765625 L 1.4375 -16.765625 L 2.4375 -21.71875 L 5.90625 -21.71875 L 6.15625 -23 C 6.675781 -25.46875 7.753906 -27.410156 9.390625 -28.828125 C 11.023438 -30.242188 13.164062 -30.953125 15.8125 -30.953125 C 16.800781 -30.953125 17.742188 -30.84375 18.640625 -30.625 C 19.535156 -30.40625 20.296875 -30.101562 20.921875 -29.71875 L 18.40625 -25.09375 C 17.71875 -25.625 16.867188 -25.890625 15.859375 -25.890625 Z M 15.859375 -25.890625 "/></g></g></g><g fill="#80cc28" fill-opacity="1"><g transform="translate(212.905708, 253.395643)"><g><path d="M 12.390625 0.328125 C 10.160156 0.328125 8.195312 -0.0820312 6.5 -0.90625 C 4.8125 -1.726562 3.503906 -2.890625 2.578125 -4.390625 C 1.660156 -5.890625 1.203125 -7.632812 1.203125 -9.625 C 1.203125 -12.070312 1.78125 -14.269531 2.9375 -16.21875 C 4.09375 -18.175781 5.6875 -19.71875 7.71875 -20.84375 C 9.757812 -21.976562 12.054688 -22.546875 14.609375 -22.546875 C 16.867188 -22.546875 18.835938 -22.128906 20.515625 -21.296875 C 22.191406 -20.472656 23.488281 -19.3125 24.40625 -17.8125 C 25.332031 -16.3125 25.796875 -14.570312 25.796875 -12.59375 C 25.796875 -10.144531 25.222656 -7.941406 24.078125 -5.984375 C 22.941406 -4.035156 21.347656 -2.492188 19.296875 -1.359375 C 17.242188 -0.234375 14.941406 0.328125 12.390625 0.328125 Z M 12.796875 -5 C 14.035156 -5 15.148438 -5.304688 16.140625 -5.921875 C 17.128906 -6.546875 17.898438 -7.40625 18.453125 -8.5 C 19.003906 -9.601562 19.28125 -10.867188 19.28125 -12.296875 C 19.28125 -13.816406 18.835938 -15.015625 17.953125 -15.890625 C 17.078125 -16.773438 15.835938 -17.21875 14.234375 -17.21875 C 12.972656 -17.21875 11.847656 -16.90625 10.859375 -16.28125 C 9.867188 -15.664062 9.097656 -14.804688 8.546875 -13.703125 C 7.992188 -12.597656 7.71875 -11.332031 7.71875 -9.90625 C 7.71875 -8.394531 8.164062 -7.195312 9.0625 -6.3125 C 9.957031 -5.4375 11.203125 -5 12.796875 -5 Z M 12.796875 -5 "/></g></g></g><g fill="#80cc28" fill-opacity="1"><g transform="translate(236.01779, 253.395643)"><g><path d="M 12.390625 0.328125 C 10.160156 0.328125 8.195312 -0.0820312 6.5 -0.90625 C 4.8125 -1.726562 3.503906 -2.890625 2.578125 -4.390625 C 1.660156 -5.890625 1.203125 -7.632812 1.203125 -9.625 C 1.203125 -12.070312 1.78125 -14.269531 2.9375 -16.21875 C 4.09375 -18.175781 5.6875 -19.71875 7.71875 -20.84375 C 9.757812 -21.976562 12.054688 -22.546875 14.609375 -22.546875 C 16.867188 -22.546875 18.835938 -22.128906 20.515625 -21.296875 C 22.191406 -20.472656 23.488281 -19.3125 24.40625 -17.8125 C 25.332031 -16.3125 25.796875 -14.570312 25.796875 -12.59375 C 25.796875 -10.144531 25.222656 -7.941406 24.078125 -5.984375 C 22.941406 -4.035156 21.347656 -2.492188 19.296875 -1.359375 C 17.242188 -0.234375 14.941406 0.328125 12.390625 0.328125 Z M 12.796875 -5 C 14.035156 -5 15.148438 -5.304688 16.140625 -5.921875 C 17.128906 -6.546875 17.898438 -7.40625 18.453125 -8.5 C 19.003906 -9.601562 19.28125 -10.867188 19.28125 -12.296875 C 19.28125 -13.816406 18.835938 -15.015625 17.953125 -15.890625 C 17.078125 -16.773438 15.835938 -17.21875 14.234375 -17.21875 C 12.972656 -17.21875 11.847656 -16.90625 10.859375 -16.28125 C 9.867188 -15.664062 9.097656 -14.804688 8.546875 -13.703125 C 7.992188 -12.597656 7.71875 -11.332031 7.71875 -9.90625 C 7.71875 -8.394531 8.164062 -7.195312 9.0625 -6.3125 C 9.957031 -5.4375 11.203125 -5 12.796875 -5 Z M 12.796875 -5 "/></g></g></g><g fill="#80cc28" fill-opacity="1"><g transform="translate(259.129873, 253.395643)"><g><path d="M 29.46875 -30.625 L 23.359375 0 L 17.25 0 L 17.703125 -2.234375 C 15.835938 -0.523438 13.566406 0.328125 10.890625 0.328125 C 9.160156 0.328125 7.566406 -0.0664062 6.109375 -0.859375 C 4.648438 -1.660156 3.488281 -2.8125 2.625 -4.3125 C 1.757812 -5.8125 1.328125 -7.582031 1.328125 -9.625 C 1.328125 -12.070312 1.867188 -14.28125 2.953125 -16.25 C 4.035156 -18.21875 5.515625 -19.757812 7.390625 -20.875 C 9.265625 -21.988281 11.328125 -22.546875 13.578125 -22.546875 C 15.203125 -22.546875 16.625 -22.269531 17.84375 -21.71875 C 19.070312 -21.164062 20.046875 -20.351562 20.765625 -19.28125 L 23.03125 -30.625 Z M 12.875 -5 C 14.144531 -5 15.273438 -5.304688 16.265625 -5.921875 C 17.253906 -6.546875 18.023438 -7.40625 18.578125 -8.5 C 19.128906 -9.601562 19.40625 -10.867188 19.40625 -12.296875 C 19.40625 -13.816406 18.957031 -15.015625 18.0625 -15.890625 C 17.164062 -16.773438 15.921875 -17.21875 14.328125 -17.21875 C 13.054688 -17.21875 11.925781 -16.90625 10.9375 -16.28125 C 9.945312 -15.664062 9.175781 -14.804688 8.625 -13.703125 C 8.070312 -12.597656 7.796875 -11.332031 7.796875 -9.90625 C 7.796875 -8.394531 8.242188 -7.195312 9.140625 -6.3125 C 10.035156 -5.4375 11.28125 -5 12.875 -5 Z M 12.875 -5 "/></g></g></g><g fill="#f68712" fill-opacity="0.4"><g transform="translate(123.461758, 252.80304)"><g><path d="M 12.59375 -23.53125 L 11.0625 -15.890625 L 24.484375 -15.890625 L 23.359375 -10.53125 L 10.03125 -10.53125 L 7.921875 0 L 1.203125 0 L 6.96875 -28.890625 L 28.8125 -28.890625 L 27.703125 -23.53125 Z M 12.59375 -23.53125 "/></g></g></g><g fill="#f68712" fill-opacity="0.4"><g transform="translate(145.954738, 252.80304)"><g><path d="M 27.734375 -22.203125 L 23.328125 0 L 17.21875 0 L 17.625 -2.1875 C 15.78125 -0.507812 13.507812 0.328125 10.8125 0.328125 C 9.082031 0.328125 7.488281 -0.0664062 6.03125 -0.859375 C 4.570312 -1.660156 3.40625 -2.8125 2.53125 -4.3125 C 1.664062 -5.8125 1.234375 -7.582031 1.234375 -9.625 C 1.234375 -12.070312 1.773438 -14.28125 2.859375 -16.25 C 3.953125 -18.21875 5.429688 -19.757812 7.296875 -20.875 C 9.171875 -21.988281 11.238281 -22.546875 13.5 -22.546875 C 16.914062 -22.546875 19.320312 -21.429688 20.71875 -19.203125 L 21.296875 -22.203125 Z M 12.796875 -5 C 14.066406 -5 15.195312 -5.304688 16.1875 -5.921875 C 17.175781 -6.546875 17.941406 -7.40625 18.484375 -8.5 C 19.035156 -9.601562 19.3125 -10.867188 19.3125 -12.296875 C 19.3125 -13.816406 18.863281 -15.015625 17.96875 -15.890625 C 17.082031 -16.773438 15.835938 -17.21875 14.234375 -17.21875 C 12.972656 -17.21875 11.847656 -16.90625 10.859375 -16.28125 C 9.867188 -15.664062 9.097656 -14.804688 8.546875 -13.703125 C 7.992188 -12.597656 7.71875 -11.332031 7.71875 -9.90625 C 7.71875 -8.394531 8.164062 -7.195312 9.0625 -6.3125 C 9.957031 -5.4375 11.203125 -5 12.796875 -5 Z M 12.796875 -5 "/></g></g></g><g fill="#f68712" fill-opacity="0.4"><g transform="translate(170.552678, 252.80304)"><g><path d="M 8.875 0.328125 C 6.945312 0.328125 5.125 0.113281 3.40625 -0.3125 C 1.6875 -0.738281 0.34375 -1.296875 -0.625 -1.984375 L 1.859375 -6.640625 C 2.816406 -6.015625 3.988281 -5.507812 5.375 -5.125 C 6.769531 -4.738281 8.171875 -4.546875 9.578125 -4.546875 C 11.035156 -4.546875 12.117188 -4.726562 12.828125 -5.09375 C 13.546875 -5.46875 13.90625 -6 13.90625 -6.6875 C 13.90625 -7.238281 13.585938 -7.632812 12.953125 -7.875 C 12.328125 -8.125 11.3125 -8.390625 9.90625 -8.671875 C 8.3125 -8.972656 7 -9.300781 5.96875 -9.65625 C 4.9375 -10.019531 4.039062 -10.601562 3.28125 -11.40625 C 2.519531 -12.21875 2.140625 -13.328125 2.140625 -14.734375 C 2.140625 -17.179688 3.164062 -19.09375 5.21875 -20.46875 C 7.269531 -21.851562 9.960938 -22.546875 13.296875 -22.546875 C 14.835938 -22.546875 16.335938 -22.378906 17.796875 -22.046875 C 19.253906 -21.710938 20.488281 -21.257812 21.5 -20.6875 L 19.203125 -15.96875 C 17.378906 -17.101562 15.1875 -17.671875 12.625 -17.671875 C 11.226562 -17.671875 10.164062 -17.460938 9.4375 -17.046875 C 8.707031 -16.640625 8.34375 -16.117188 8.34375 -15.484375 C 8.34375 -14.898438 8.65625 -14.476562 9.28125 -14.21875 C 9.914062 -13.957031 10.976562 -13.675781 12.46875 -13.375 C 14.03125 -13.070312 15.3125 -12.75 16.3125 -12.40625 C 17.320312 -12.0625 18.195312 -11.488281 18.9375 -10.6875 C 19.6875 -9.894531 20.0625 -8.8125 20.0625 -7.4375 C 20.0625 -4.957031 19.019531 -3.039062 16.9375 -1.6875 C 14.863281 -0.34375 12.175781 0.328125 8.875 0.328125 Z M 8.875 0.328125 "/></g></g></g><g fill="#f68712" fill-opacity="0.4"><g transform="translate(188.588125, 252.80304)"><g><path d="M 9.53125 -7.84375 C 9.476562 -7.625 9.453125 -7.320312 9.453125 -6.9375 C 9.453125 -5.5 10.238281 -4.78125 11.8125 -4.78125 C 12.664062 -4.78125 13.53125 -5.046875 14.40625 -5.578125 L 15.359375 -0.984375 C 13.921875 -0.109375 12.078125 0.328125 9.828125 0.328125 C 7.734375 0.328125 6.050781 -0.21875 4.78125 -1.3125 C 3.519531 -2.414062 2.890625 -3.929688 2.890625 -5.859375 C 2.890625 -6.410156 2.957031 -7.054688 3.09375 -7.796875 L 4.875 -16.765625 L 1.4375 -16.765625 L 2.4375 -21.71875 L 5.859375 -21.71875 L 6.9375 -27.125 L 13.375 -27.125 L 12.296875 -21.71875 L 17.828125 -21.71875 L 16.84375 -16.765625 L 11.3125 -16.765625 Z M 9.53125 -7.84375 "/></g></g></g><g fill="#f68712" fill-opacity="1"><g transform="translate(123.461758, 252.80304)"><g><path d="M 12.59375 -23.53125 L 11.0625 -15.890625 L 24.484375 -15.890625 L 23.359375 -10.53125 L 10.03125 -10.53125 L 7.921875 0 L 1.203125 0 L 6.96875 -28.890625 L 28.8125 -28.890625 L 27.703125 -23.53125 Z M 12.59375 -23.53125 "/></g></g></g><g fill="#f68712" fill-opacity="1"><g transform="translate(145.954738, 252.80304)"><g><path d="M 27.734375 -22.203125 L 23.328125 0 L 17.21875 0 L 17.625 -2.1875 C 15.78125 -0.507812 13.507812 0.328125 10.8125 0.328125 C 9.082031 0.328125 7.488281 -0.0664062 6.03125 -0.859375 C 4.570312 -1.660156 3.40625 -2.8125 2.53125 -4.3125 C 1.664062 -5.8125 1.234375 -7.582031 1.234375 -9.625 C 1.234375 -12.070312 1.773438 -14.28125 2.859375 -16.25 C 3.953125 -18.21875 5.429688 -19.757812 7.296875 -20.875 C 9.171875 -21.988281 11.238281 -22.546875 13.5 -22.546875 C 16.914062 -22.546875 19.320312 -21.429688 20.71875 -19.203125 L 21.296875 -22.203125 Z M 12.796875 -5 C 14.066406 -5 15.195312 -5.304688 16.1875 -5.921875 C 17.175781 -6.546875 17.941406 -7.40625 18.484375 -8.5 C 19.035156 -9.601562 19.3125 -10.867188 19.3125 -12.296875 C 19.3125 -13.816406 18.863281 -15.015625 17.96875 -15.890625 C 17.082031 -16.773438 15.835938 -17.21875 14.234375 -17.21875 C 12.972656 -17.21875 11.847656 -16.90625 10.859375 -16.28125 C 9.867188 -15.664062 9.097656 -14.804688 8.546875 -13.703125 C 7.992188 -12.597656 7.71875 -11.332031 7.71875 -9.90625 C 7.71875 -8.394531 8.164062 -7.195312 9.0625 -6.3125 C 9.957031 -5.4375 11.203125 -5 12.796875 -5 Z M 12.796875 -5 "/></g></g></g><g fill="#f68712" fill-opacity="1"><g transform="translate(170.552678, 252.80304)"><g><path d="M 8.875 0.328125 C 6.945312 0.328125 5.125 0.113281 3.40625 -0.3125 C 1.6875 -0.738281 0.34375 -1.296875 -0.625 -1.984375 L 1.859375 -6.640625 C 2.816406 -6.015625 3.988281 -5.507812 5.375 -5.125 C 6.769531 -4.738281 8.171875 -4.546875 9.578125 -4.546875 C 11.035156 -4.546875 12.117188 -4.726562 12.828125 -5.09375 C 13.546875 -5.46875 13.90625 -6 13.90625 -6.6875 C 13.90625 -7.238281 13.585938 -7.632812 12.953125 -7.875 C 12.328125 -8.125 11.3125 -8.390625 9.90625 -8.671875 C 8.3125 -8.972656 7 -9.300781 5.96875 -9.65625 C 4.9375 -10.019531 4.039062 -10.601562 3.28125 -11.40625 C 2.519531 -12.21875 2.140625 -13.328125 2.140625 -14.734375 C 2.140625 -17.179688 3.164062 -19.09375 5.21875 -20.46875 C 7.269531 -21.851562 9.960938 -22.546875 13.296875 -22.546875 C 14.835938 -22.546875 16.335938 -22.378906 17.796875 -22.046875 C 19.253906 -21.710938 20.488281 -21.257812 21.5 -20.6875 L 19.203125 -15.96875 C 17.378906 -17.101562 15.1875 -17.671875 12.625 -17.671875 C 11.226562 -17.671875 10.164062 -17.460938 9.4375 -17.046875 C 8.707031 -16.640625 8.34375 -16.117188 8.34375 -15.484375 C 8.34375 -14.898438 8.65625 -14.476562 9.28125 -14.21875 C 9.914062 -13.957031 10.976562 -13.675781 12.46875 -13.375 C 14.03125 -13.070312 15.3125 -12.75 16.3125 -12.40625 C 17.320312 -12.0625 18.195312 -11.488281 18.9375 -10.6875 C 19.6875 -9.894531 20.0625 -8.8125 20.0625 -7.4375 C 20.0625 -4.957031 19.019531 -3.039062 16.9375 -1.6875 C 14.863281 -0.34375 12.175781 0.328125 8.875 0.328125 Z M 8.875 0.328125 "/></g></g></g><g fill="#f68712" fill-opacity="1"><g transform="translate(188.588125, 252.80304)"><g><path d="M 9.53125 -7.84375 C 9.476562 -7.625 9.453125 -7.320312 9.453125 -6.9375 C 9.453125 -5.5 10.238281 -4.78125 11.8125 -4.78125 C 12.664062 -4.78125 13.53125 -5.046875 14.40625 -5.578125 L 15.359375 -0.984375 C 13.921875 -0.109375 12.078125 0.328125 9.828125 0.328125 C 7.734375 0.328125 6.050781 -0.21875 4.78125 -1.3125 C 3.519531 -2.414062 2.890625 -3.929688 2.890625 -5.859375 C 2.890625 -6.410156 2.957031 -7.054688 3.09375 -7.796875 L 4.875 -16.765625 L 1.4375 -16.765625 L 2.4375 -21.71875 L 5.859375 -21.71875 L 6.9375 -27.125 L 13.375 -27.125 L 12.296875 -21.71875 L 17.828125 -21.71875 L 16.84375 -16.765625 L 11.3125 -16.765625 Z M 9.53125 -7.84375 "/></g></g></g></svg>